{
  "accessors": [
    {
      "bufferView": 2,
      "componentType": 5126,
      "count": 65532,
      "max": [
        98.319168090820312,
        249.64599609375,
        60.369918823242188
      ],
      "min": [
        -98.314582824707031,
        0.29639595746994019,
        -60.369918823242188
      ],
      "type": "VEC3"
    },
    {
      "bufferView": 2,
      "byteOffset": 786384,
      "componentType": 5126,
      "count": 65532,
      "max": [
        0.99974089860916138,
        0.67437058687210083,
        0.9999995231628418
      ],
      "min": [
        -0.99957996606826782,
        -0.99970537424087524,
        -0.68581831455230713
      ],
      "type": "VEC3"
    },
    {
      "bufferView": 3,
      "componentType": 5126,
      "count": 65532,
      "max": [
        0.91431719064712524,
        0.99999845027923584,
        0.99830079078674316,
        1
      ],
      "min": [
        -0.63052552938461304,
        -0.43467473983764648,
        -0.6735682487487793,
        1
      ],
      "type": "VEC4"
    },
    {
      "bufferView": 1,
      "componentType": 5126,
      "count": 65532,
      "max": [
        0.93209999799728394,
        0.99639999866485596
      ],
      "min": [
        0.0085199996829032898,
        0.0019499999471008778
      ],
      "type": "VEC2"
    },
    {
      "bufferView": 0,
      "componentType": 5125,
      "count": 374031,
      "max": [
        65531
      ],
      "min": [
        0
      ],
      "type": "SCALAR"
    },
    {
      "bufferView": 2,
      "byteOffset": 1572768,
      "componentType": 5126,
      "count": 49385,
      "max": [
        92.888748168945312,
        248.88824462890625,
        59.831027984619141
      ],
      "min": [
        -98.319168090820312,
        -0,
        -60.358829498291016
      ],
      "type": "VEC3"
    },
    {
      "bufferView": 2,
      "byteOffset": 2165388,
      "componentType": 5126,
      "count": 49385,
      "max": [
        0.96717965602874756,
        0.67449057102203369,
        0.99999922513961792
      ],
      "min": [
        -0.99979549646377563,
        -0.99969303607940674,
        -0.68574446439743042
      ],
      "type": "VEC3"
    },
    {
      "bufferView": 3,
      "byteOffset": 1048512,
      "componentType": 5126,
      "count": 49385,
      "max": [
        0.73231649398803711,
        0.99999767541885376,
        0.99925756454467773,
        1
      ],
      "min": [
        -0.84765106439590454,
        -0.50602364540100098,
        -0.64604645967483521,
        1
      ],
      "type": "VEC4"
    },
    {
      "bufferView": 1,
      "byteOffset": 524256,
      "componentType": 5126,
      "count": 49385,
      "max": [
        0.9233899712562561,
        0.99804002046585083
      ],
      "min": [
        0.0019499999471008778,
        0.067010000348091125
      ],
      "type": "VEC2"
    },
    {
      "bufferView": 0,
      "byteOffset": 1496124,
      "componentType": 5125,
      "count": 274545,
      "max": [
        49384
      ],
      "min": [
        0
      ],
      "type": "SCALAR"
    }
  ],
  "asset": {
    "extras": {
      "author": "sammburr (https://sketchfab.com/sammburr)",
      "license": "CC-BY-4.0 (http://creativecommons.org/licenses/by/4.0/)",
      "source": "https://sketchfab.com/3d-models/head2-ce80bb18b9b94f50af2b9459dea1ddcd",
      "title": "Head2"
    },
    "generator": "Sketchfab-5.83.0",
    "version": "2.0"
  },
  "bufferViews": [
    {
      "buffer": 0,
      "byteLength": 2594304,
      "byteOffset": 0,
      "name": "floatBufferViews",
      "target": 34963
    },
    {
      "buffer": 0,
      "byteLength": 919336,
      "byteOffset": 2594304,
      "byteStride": 8,
      "name": "floatBufferViews",
      "target": 34962
    },
    {
      "buffer": 0,
      "byteLength": 2758008,
      "byteOffset": 3513640,
      "byteStride": 12,
      "name": "floatBufferViews",
      "target": 34962
    },
    {
      "buffer": 0,
      "byteLength": 1838672,
      "byteOffset": 6271648,
      "byteStride": 16,
      "name": "floatBufferViews",
      "target": 34962
    }
  ],
  "buffers": [
    {
      "byteLength": 8110320,
      "uri": "scene.bin"
    }
  ],
  "images": [
    {
      "uri": "textures/Head2_baseColor.jpeg"
    }
  ],
  "materials": [
    {
      "doubleSided": true,
      "emissiveFactor": [
        0,
        0,
        0
      ],
      "name": "Head2",
      "pbrMetallicRoughness": {
        "baseColorFactor": [
          1,
          1,
          1,
          1
        ],
        "baseColorTexture": {
          "index": 0,
          "texCoord": 0
        },
        "metallicFactor": 0,
        "roughnessFactor": 0.59999999999999998
      }
    }
  ],
  "meshes": [
    {
      "name": "Head2_Head2_0",
      "primitives": [
        {
          "attributes": {
            "NORMAL": 1,
            "POSITION": 0,
            "TANGENT": 2,
            "TEXCOORD_0": 3
          },
          "indices": 4,
          "material": 0,
          "mode": 4
        }
      ]
    },
    {
      "name": "Head2_Head2_0",
      "primitives": [
        {
          "attributes": {
            "NORMAL": 6,
            "POSITION": 5,
            "TANGENT": 7,
            "TEXCOORD_0": 8
          },
          "indices": 9,
          "material": 0,
          "mode": 4
        }
      ]
    }
  ],
  "nodes": [
    {
      "children": [
        1
      ],
      "name": "RootNode (gltf orientation matrix)",
      "rotation": [
        -0.70710678118654746,
        -0,
        -0,
        0.70710678118654757
      ]
    },
    {
      "children": [
        2
      ],
      "name": "RootNode (model correction matrix)"
    },
    {
      "children": [
        3
      ],
      "matrix": [
        1,
        0,
        0,
        0,
        0,
        0,
        1,
        0,
        0,
        -1,
        0,
        0,
        0,
        0,
        0,
        1
      ],
      "name": "fc126b2cf35c445499a673553e4e2c30.fbx"
    },
    {
      "children": [
        4
      ],
      "name": "RootNode"
    },
    {
      "children": [
        5,
        6
      ],
      "name": "Head2"
    },
    {
      "mesh": 0,
      "name": "Head2_Head2_0"
    },
    {
      "mesh": 1,
      "name": "Head2_Head2_0"
    }
  ],
  "samplers": [
    {
      "magFilter": 9729,
      "minFilter": 9987,
      "wrapS": 10497,
      "wrapT": 10497
    }
  ],
  "scene": 0,
  "scenes": [
    {
      "name": "OSG_Scene",
      "nodes": [
        0
      ]
    }
  ],
  "textures": [
    {
      "sampler": 0,
      "source": 0
    }
  ]
}

